<svg width="40" height="40" viewBox="0 0 40 40" fill="none" xmlns="http://www.w3.org/2000/svg">
<path d="M12.4648 30.5841L17.6315 34.5841C18.2982 35.2508 19.7982 35.5841 20.7982 35.5841H27.1315C29.1315 35.5841 31.2982 34.0841 31.7982 32.0841L35.7982 19.9174C36.6315 17.5841 35.1315 15.5841 32.6315 15.5841H25.9648C24.9648 15.5841 24.1315 14.7508 24.2982 13.5841L25.1315 8.25076C25.4648 6.75076 24.4648 5.08409 22.9648 4.58409C21.6315 4.08409 19.9648 4.75076 19.2982 5.75076L12.4648 15.9174" stroke="white" stroke-width="2" stroke-miterlimit="10"/>
<path d="M3.96484 30.584V14.2507C3.96484 11.9173 4.96484 11.084 7.29818 11.084H8.96484C11.2982 11.084 12.2982 11.9173 12.2982 14.2507V30.584C12.2982 32.9173 11.2982 33.7507 8.96484 33.7507H7.29818C4.96484 33.7507 3.96484 32.9173 3.96484 30.584Z" stroke="white" stroke-width="2" stroke-linecap="round" stroke-linejoin="round"/>
</svg>
